<mxfile host="app.diagrams.net" modified="2024-05-08T12:46:16.870Z" agent="Mozilla/5.0 (Windows NT 10.0; Win64; x64) AppleWebKit/537.36 (KHTML, like Gecko) Chrome/124.0.0.0 Safari/537.36" etag="9_bgyeBufL2OgGxK7TEm" version="24.3.1" type="github">
  <diagram id="kgpKYQtTHZ0yAKxKKP6v" name="Page-1">
    <mxGraphModel dx="625" dy="330" grid="1" gridSize="10" guides="1" tooltips="1" connect="1" arrows="1" fold="1" page="1" pageScale="1" pageWidth="850" pageHeight="1100" math="0" shadow="0">
      <root>
        <mxCell id="0" />
        <mxCell id="1" parent="0" />
        <mxCell id="_P_tWsRWUz9dd7yuZsEV-2" value="LIETOTĀJS" style="rounded=0;whiteSpace=wrap;html=1;" vertex="1" parent="1">
          <mxGeometry x="100" y="240" width="120" height="60" as="geometry" />
        </mxCell>
        <mxCell id="_P_tWsRWUz9dd7yuZsEV-3" value="NOSAKA MARŠRUTA ID" style="ellipse;whiteSpace=wrap;html=1;" vertex="1" parent="1">
          <mxGeometry x="340" y="230" width="120" height="80" as="geometry" />
        </mxCell>
        <mxCell id="_P_tWsRWUz9dd7yuZsEV-6" value="" style="endArrow=classic;html=1;rounded=0;entryX=0;entryY=0.5;entryDx=0;entryDy=0;" edge="1" parent="1" target="_P_tWsRWUz9dd7yuZsEV-3">
          <mxGeometry width="50" height="50" relative="1" as="geometry">
            <mxPoint x="220" y="270" as="sourcePoint" />
            <mxPoint x="270" y="220" as="targetPoint" />
          </mxGeometry>
        </mxCell>
        <mxCell id="_P_tWsRWUz9dd7yuZsEV-8" value="" style="endArrow=none;html=1;rounded=0;" edge="1" parent="1">
          <mxGeometry width="50" height="50" relative="1" as="geometry">
            <mxPoint x="530" y="250" as="sourcePoint" />
            <mxPoint x="620" y="250" as="targetPoint" />
          </mxGeometry>
        </mxCell>
        <mxCell id="_P_tWsRWUz9dd7yuZsEV-9" value="" style="endArrow=none;html=1;rounded=0;" edge="1" parent="1">
          <mxGeometry width="50" height="50" relative="1" as="geometry">
            <mxPoint x="530" y="290" as="sourcePoint" />
            <mxPoint x="620" y="290" as="targetPoint" />
          </mxGeometry>
        </mxCell>
      </root>
    </mxGraphModel>
  </diagram>
</mxfile>
